<svg width="720" height="420" viewBox="0 0 720 420" xmlns="http://www.w3.org/2000/svg">
  <defs>
    <clipPath id="win"><rect width="720" height="420" rx="12"/></clipPath>
    <linearGradient id="slideGrad" x1="0" y1="0" x2="1" y2="1">
      <stop offset="0%" stop-color="#d95f2b"/>
      <stop offset="100%" stop-color="#7a2e10"/>
    </linearGradient>
  </defs>

  <rect x="2" y="4" width="720" height="420" rx="12" fill="#1a1a18" opacity="0.08"/>
  <rect x="1" y="2" width="720" height="420" rx="12" fill="#1a1a18" opacity="0.04"/>

  <g clip-path="url(#win)">
    <rect width="720" height="420" fill="#e8e5e0"/>

    <!-- Chrome -->
    <rect width="720" height="38" fill="#1e1e1c"/>
    <circle cx="20" cy="19" r="5.5" fill="#ff5f57"/>
    <circle cx="37" cy="19" r="5.5" fill="#febc2e"/>
    <circle cx="54" cy="19" r="5.5" fill="#28c840"/>
    <text x="360" y="23" text-anchor="middle" font-size="11" fill="#6b6a63"
          font-family="'SF Mono','Fira Code',Consolas,monospace">html-generator · open-make-html</text>

    <!-- Header strip -->
    <rect y="38" width="720" height="28" fill="#141413"/>
    <text x="20" y="56" font-size="11" font-weight="700" fill="#d95f2b"
          font-family="-apple-system,BlinkMacSystemFont,sans-serif">html-generator</text>
    <text x="132" y="56" font-size="10" fill="#3a3a37"
          font-family="-apple-system,sans-serif">12 types · self-contained · offline-ready · GitHub Actions deploy</text>

    <!-- ═══ CARD A: Article (top-left, wide) ═══ -->
    <rect x="0" y="66" width="436" height="180" fill="#ffffff"/>
    <rect x="0" y="66" width="436" height="3" fill="#d95f2b"/>

    <rect x="16" y="80" width="44" height="15" rx="7.5" fill="#faeee7"/>
    <text x="38" y="91" text-anchor="middle" font-size="8.5" fill="#d95f2b" font-weight="600"
          font-family="-apple-system,sans-serif">Article</text>
    <text x="68" y="91" font-size="8.5" fill="#a09f97" font-family="-apple-system,sans-serif">2026-05-19 · 8 min read</text>

    <text x="16" y="114" font-size="17" font-weight="700" fill="#1a1a18"
          font-family="-apple-system,BlinkMacSystemFont,sans-serif">온톨로지란 무엇인가</text>

    <rect x="16" y="124" width="262" height="5" rx="2.5" fill="#eceae4"/>
    <rect x="16" y="133" width="247" height="5" rx="2.5" fill="#eceae4"/>
    <rect x="16" y="142" width="257" height="5" rx="2.5" fill="#eceae4"/>
    <rect x="16" y="151" width="242" height="5" rx="2.5" fill="#eceae4"/>

    <!-- Callout -->
    <rect x="16" y="166" width="262" height="42" rx="5" fill="#faeee7"/>
    <rect x="16" y="166" width="3" height="42" rx="1.5" fill="#d95f2b"/>
    <rect x="26" y="174" width="160" height="5" rx="2.5" fill="#d95f2b" opacity="0.4"/>
    <rect x="26" y="184" width="236" height="4" rx="2" fill="#d95f2b" opacity="0.18"/>
    <rect x="26" y="192" width="218" height="4" rx="2" fill="#d95f2b" opacity="0.18"/>
    <rect x="26" y="200" width="196" height="4" rx="2" fill="#d95f2b" opacity="0.18"/>

    <!-- TOC Sidebar -->
    <rect x="294" y="118" width="126" height="122" rx="6" fill="#f5f2ed" stroke="#eceae4" stroke-width="1"/>
    <text x="304" y="133" font-size="7.5" fill="#a09f97" letter-spacing="1.2" font-weight="600"
          font-family="-apple-system,sans-serif">ON THIS PAGE</text>
    <rect x="304" y="141" width="3" height="48" rx="1.5" fill="#eceae4"/>
    <rect x="304" y="141" width="3" height="14" rx="1.5" fill="#d95f2b"/>
    <rect x="312" y="143" width="88" height="5" rx="2.5" fill="#1a1a18" opacity="0.55"/>
    <rect x="312" y="153" width="78" height="4" rx="2" fill="#dedad2"/>
    <rect x="312" y="161" width="83" height="4" rx="2" fill="#dedad2"/>
    <rect x="312" y="169" width="76" height="4" rx="2" fill="#dedad2"/>
    <rect x="312" y="177" width="68" height="4" rx="2" fill="#dedad2"/>
    <line x1="304" y1="198" x2="410" y2="198" stroke="#eceae4" stroke-width="1"/>
    <rect x="304" y="204" width="34" height="13" rx="6.5" fill="#faeee7"/>
    <text x="321" y="214" text-anchor="middle" font-size="7.5" fill="#d95f2b" font-weight="600"
          font-family="-apple-system,sans-serif">AI</text>
    <rect x="344" y="204" width="50" height="13" rx="6.5" fill="#e5eef7"/>
    <text x="369" y="214" text-anchor="middle" font-size="7.5" fill="#2d5a8e" font-weight="600"
          font-family="-apple-system,sans-serif">Ontology</text>

    <!-- ═══ CARD B: Spec (top-right) ═══ -->
    <rect x="440" y="66" width="280" height="180" fill="#ffffff"/>
    <rect x="440" y="66" width="280" height="3" fill="#2d5a8e"/>

    <rect x="456" y="80" width="34" height="15" rx="7.5" fill="#e5eef7"/>
    <text x="473" y="91" text-anchor="middle" font-size="8.5" fill="#2d5a8e" font-weight="600"
          font-family="-apple-system,sans-serif">Spec</text>
    <rect x="662" y="80" width="40" height="15" rx="7.5" fill="#e6f0e9"/>
    <text x="682" y="91" text-anchor="middle" font-size="8.5" fill="#3a6b4a" font-weight="600"
          font-family="-apple-system,sans-serif">Draft</text>

    <text x="456" y="112" font-size="14" font-weight="700" fill="#1a1a18"
          font-family="-apple-system,sans-serif">API Rate Limiter</text>

    <!-- Table header -->
    <rect x="456" y="120" width="248" height="16" rx="3" fill="#f5f2ed"/>
    <text x="464" y="131" font-size="8" fill="#6b6a63" font-weight="600"
          font-family="-apple-system,sans-serif">PROPERTY</text>
    <text x="578" y="131" font-size="8" fill="#6b6a63" font-weight="600"
          font-family="-apple-system,sans-serif">VALUE</text>
    <text x="656" y="131" font-size="8" fill="#6b6a63" font-weight="600"
          font-family="-apple-system,sans-serif">STATUS</text>

    <!-- Row 1 -->
    <line x1="456" y1="136" x2="704" y2="136" stroke="#eceae4" stroke-width="1"/>
    <text x="464" y="147" font-size="8.5" fill="#1a1a18" font-family="-apple-system,sans-serif">Max requests</text>
    <text x="578" y="147" font-size="8.5" fill="#6b6a63" font-family="'SF Mono',monospace">1000/min</text>
    <rect x="656" y="139" width="38" height="13" rx="6.5" fill="#e6f0e9"/>
    <text x="675" y="149" text-anchor="middle" font-size="7.5" fill="#3a6b4a" font-weight="600"
          font-family="-apple-system,sans-serif">Done</text>

    <!-- Row 2 -->
    <line x1="456" y1="154" x2="704" y2="154" stroke="#eceae4" stroke-width="1"/>
    <text x="464" y="165" font-size="8.5" fill="#1a1a18" font-family="-apple-system,sans-serif">Burst limit</text>
    <text x="578" y="165" font-size="8.5" fill="#6b6a63" font-family="'SF Mono',monospace">50/sec</text>
    <rect x="656" y="157" width="38" height="13" rx="6.5" fill="#e6f0e9"/>
    <text x="675" y="167" text-anchor="middle" font-size="7.5" fill="#3a6b4a" font-weight="600"
          font-family="-apple-system,sans-serif">Done</text>

    <!-- Row 3 -->
    <line x1="456" y1="172" x2="704" y2="172" stroke="#eceae4" stroke-width="1"/>
    <text x="464" y="183" font-size="8.5" fill="#1a1a18" font-family="-apple-system,sans-serif">Retry-After</text>
    <text x="578" y="183" font-size="8.5" fill="#6b6a63" font-family="'SF Mono',monospace">header</text>
    <rect x="656" y="175" width="38" height="13" rx="6.5" fill="#fdf5d9"/>
    <text x="675" y="185" text-anchor="middle" font-size="7.5" fill="#8a6a00" font-weight="600"
          font-family="-apple-system,sans-serif">WIP</text>

    <!-- Row 4 -->
    <line x1="456" y1="190" x2="704" y2="190" stroke="#eceae4" stroke-width="1"/>
    <text x="464" y="201" font-size="8.5" fill="#1a1a18" font-family="-apple-system,sans-serif">Sliding window</text>
    <text x="578" y="201" font-size="8.5" fill="#6b6a63" font-family="'SF Mono',monospace">60s</text>
    <rect x="656" y="193" width="38" height="13" rx="6.5" fill="#fdecea"/>
    <text x="675" y="203" text-anchor="middle" font-size="7.5" fill="#b03a2e" font-weight="600"
          font-family="-apple-system,sans-serif">Todo</text>

    <!-- Row 5 -->
    <line x1="456" y1="208" x2="704" y2="208" stroke="#eceae4" stroke-width="1"/>
    <text x="464" y="219" font-size="8.5" fill="#1a1a18" font-family="-apple-system,sans-serif">Key strategy</text>
    <text x="578" y="219" font-size="8.5" fill="#6b6a63" font-family="'SF Mono',monospace">IP + token</text>
    <rect x="656" y="211" width="38" height="13" rx="6.5" fill="#fdecea"/>
    <text x="675" y="221" text-anchor="middle" font-size="7.5" fill="#b03a2e" font-weight="600"
          font-family="-apple-system,sans-serif">Todo</text>

    <!-- ═══ CARD C: Diagram (bottom-left, dark) ═══ -->
    <rect x="0" y="250" width="236" height="170" fill="#141413"/>
    <rect x="0" y="250" width="236" height="3" fill="#3a6b4a"/>

    <rect x="12" y="262" width="52" height="15" rx="7.5" fill="#162014"/>
    <text x="38" y="273" text-anchor="middle" font-size="8.5" fill="#3a6b4a" font-weight="600"
          font-family="-apple-system,sans-serif">Diagram</text>

    <text x="12" y="293" font-size="11" font-weight="700" fill="#ffffff"
          font-family="-apple-system,sans-serif">System Architecture</text>

    <!-- Nodes -->
    <rect x="14" y="306" width="52" height="26" rx="5" fill="#1e1e1c" stroke="#3a6b4a" stroke-width="1"/>
    <text x="40" y="323" text-anchor="middle" font-size="8.5" fill="#3a6b4a" font-weight="600"
          font-family="'SF Mono',monospace">Client</text>

    <line x1="66" y1="319" x2="90" y2="319" stroke="#2e2e2c" stroke-width="1.5"/>
    <polygon points="90,315 98,319 90,323" fill="#2e2e2c"/>

    <rect x="98" y="306" width="64" height="26" rx="5" fill="#1e1e1c" stroke="#2d5a8e" stroke-width="1"/>
    <text x="130" y="323" text-anchor="middle" font-size="8.5" fill="#2d5a8e" font-weight="600"
          font-family="'SF Mono',monospace">Gateway</text>

    <line x1="130" y1="332" x2="130" y2="350" stroke="#2e2e2c" stroke-width="1.5"/>
    <polygon points="126,350 130,358 134,350" fill="#2e2e2c"/>

    <line x1="162" y1="319" x2="188" y2="319" stroke="#2e2e2c" stroke-width="1.5"/>
    <polygon points="188,315 196,319 188,323" fill="#2e2e2c"/>

    <rect x="196" y="306" width="30" height="26" rx="5" fill="#1e1e1c" stroke="#d95f2b" stroke-width="1"/>
    <text x="211" y="318" text-anchor="middle" font-size="7.5" fill="#d95f2b" font-weight="600"
          font-family="'SF Mono',monospace">Svc</text>
    <text x="211" y="328" text-anchor="middle" font-size="7.5" fill="#d95f2b"
          font-family="'SF Mono',monospace">A</text>

    <rect x="106" y="358" width="48" height="26" rx="5" fill="#1e1e1c" stroke="#8a6a00" stroke-width="1"/>
    <text x="130" y="375" text-anchor="middle" font-size="8.5" fill="#8a6a00" font-weight="600"
          font-family="'SF Mono',monospace">Redis</text>

    <text x="12" y="412" font-size="8" fill="#2e2e2c" font-family="'SF Mono',monospace">Rate Limiter · v2.1</text>

    <!-- ═══ CARD D: Slide (bottom-center, gradient) ═══ -->
    <rect x="240" y="250" width="248" height="170" fill="url(#slideGrad)"/>
    <rect x="240" y="250" width="248" height="3" fill="#febc2e"/>

    <rect x="252" y="262" width="34" height="15" rx="7.5" fill="rgba(255,255,255,0.15)"/>
    <text x="269" y="273" text-anchor="middle" font-size="8.5" fill="rgba(255,255,255,0.9)" font-weight="600"
          font-family="-apple-system,sans-serif">Slide</text>

    <text x="364" y="304" text-anchor="middle" font-size="16" font-weight="700" fill="#ffffff"
          font-family="-apple-system,BlinkMacSystemFont,sans-serif">분산 시스템</text>
    <text x="364" y="322" text-anchor="middle" font-size="16" font-weight="700" fill="rgba(255,255,255,0.82)"
          font-family="-apple-system,sans-serif">입문 가이드</text>

    <line x1="306" y1="333" x2="422" y2="333" stroke="rgba(255,255,255,0.22)" stroke-width="1"/>

    <circle cx="260" cy="349" r="2.5" fill="rgba(255,255,255,0.5)"/>
    <rect x="270" y="345" width="118" height="6" rx="3" fill="rgba(255,255,255,0.28)"/>
    <circle cx="260" cy="363" r="2.5" fill="rgba(255,255,255,0.5)"/>
    <rect x="270" y="359" width="98" height="6" rx="3" fill="rgba(255,255,255,0.28)"/>
    <circle cx="260" cy="377" r="2.5" fill="rgba(255,255,255,0.5)"/>
    <rect x="270" y="373" width="108" height="6" rx="3" fill="rgba(255,255,255,0.28)"/>

    <!-- Slide counter -->
    <text x="476" y="412" text-anchor="end" font-size="9" fill="rgba(255,255,255,0.35)"
          font-family="'SF Mono',monospace">01 / 12</text>

    <!-- Progress dots -->
    <circle cx="346" cy="408" r="3" fill="rgba(255,255,255,0.9)"/>
    <circle cx="356" cy="408" r="2.5" fill="rgba(255,255,255,0.22)"/>
    <circle cx="365" cy="408" r="2.5" fill="rgba(255,255,255,0.22)"/>
    <circle cx="374" cy="408" r="2.5" fill="rgba(255,255,255,0.22)"/>
    <circle cx="383" cy="408" r="2.5" fill="rgba(255,255,255,0.22)"/>

    <!-- ═══ CARD E: Report (bottom-right, table + bars) ═══ -->
    <rect x="492" y="250" width="228" height="170" fill="#ffffff"/>
    <rect x="492" y="250" width="228" height="3" fill="#8a6a00"/>

    <rect x="504" y="262" width="48" height="15" rx="7.5" fill="#fdf5d9"/>
    <text x="528" y="273" text-anchor="middle" font-size="8.5" fill="#8a6a00" font-weight="600"
          font-family="-apple-system,sans-serif">Report</text>

    <text x="504" y="293" font-size="11" font-weight="700" fill="#1a1a18"
          font-family="-apple-system,sans-serif">Q2 인프라 현황</text>

    <!-- Table header -->
    <rect x="504" y="300" width="204" height="16" rx="3" fill="#f5f2ed"/>
    <text x="512" y="311" font-size="8" fill="#6b6a63" font-weight="600"
          font-family="-apple-system,sans-serif">SERVICE</text>
    <text x="592" y="311" font-size="8" fill="#6b6a63" font-weight="600"
          font-family="-apple-system,sans-serif">UPTIME</text>
    <text x="642" y="311" font-size="8" fill="#6b6a63" font-weight="600"
          font-family="-apple-system,sans-serif">LOAD</text>

    <!-- Row 1 -->
    <line x1="504" y1="316" x2="708" y2="316" stroke="#eceae4" stroke-width="1"/>
    <text x="512" y="327" font-size="8.5" fill="#1a1a18" font-family="-apple-system,sans-serif">API Server</text>
    <text x="592" y="327" font-size="8.5" fill="#3a6b4a" font-family="'SF Mono',monospace">99.9%</text>
    <rect x="642" y="320" width="56" height="8" rx="4" fill="#eceae4"/>
    <rect x="642" y="320" width="44" height="8" rx="4" fill="#3a6b4a" opacity="0.55"/>

    <!-- Row 2 -->
    <line x1="504" y1="334" x2="708" y2="334" stroke="#eceae4" stroke-width="1"/>
    <text x="512" y="345" font-size="8.5" fill="#1a1a18" font-family="-apple-system,sans-serif">Database</text>
    <text x="592" y="345" font-size="8.5" fill="#3a6b4a" font-family="'SF Mono',monospace">99.7%</text>
    <rect x="642" y="338" width="56" height="8" rx="4" fill="#eceae4"/>
    <rect x="642" y="338" width="50" height="8" rx="4" fill="#2d5a8e" opacity="0.5"/>

    <!-- Row 3 -->
    <line x1="504" y1="352" x2="708" y2="352" stroke="#eceae4" stroke-width="1"/>
    <text x="512" y="363" font-size="8.5" fill="#1a1a18" font-family="-apple-system,sans-serif">CDN</text>
    <text x="592" y="363" font-size="8.5" fill="#8a6a00" font-family="'SF Mono',monospace">98.2%</text>
    <rect x="642" y="356" width="56" height="8" rx="4" fill="#eceae4"/>
    <rect x="642" y="356" width="28" height="8" rx="4" fill="#d95f2b" opacity="0.6"/>

    <!-- Row 4 -->
    <line x1="504" y1="370" x2="708" y2="370" stroke="#eceae4" stroke-width="1"/>
    <text x="512" y="381" font-size="8.5" fill="#1a1a18" font-family="-apple-system,sans-serif">Queue</text>
    <text x="592" y="381" font-size="8.5" fill="#3a6b4a" font-family="'SF Mono',monospace">99.9%</text>
    <rect x="642" y="374" width="56" height="8" rx="4" fill="#eceae4"/>
    <rect x="642" y="374" width="18" height="8" rx="4" fill="#3a6b4a" opacity="0.4"/>

    <!-- Summary -->
    <rect x="504" y="386" width="204" height="24" rx="3" fill="#f5f2ed"/>
    <text x="512" y="401" font-size="8" fill="#6b6a63" font-family="-apple-system,sans-serif">avg uptime</text>
    <text x="570" y="401" font-size="9" font-weight="700" fill="#3a6b4a" font-family="'SF Mono',monospace">99.7%</text>
    <text x="618" y="401" font-size="8" fill="#a09f97" font-family="-apple-system,sans-serif">2026 Q2</text>

    <!-- Gaps between cards -->
    <rect x="436" y="66" width="4" height="180" fill="#e8e5e0"/>
    <rect x="0"   y="246" width="720" height="4" fill="#e8e5e0"/>
    <rect x="236" y="250" width="4" height="170" fill="#e8e5e0"/>
    <rect x="488" y="250" width="4" height="170" fill="#e8e5e0"/>

    <!-- Outer border -->
    <rect width="720" height="420" rx="12" fill="none" stroke="#dedad2" stroke-width="1"/>
  </g>
</svg>
