<svg width="720" height="420" viewBox="0 0 720 420" xmlns="http://www.w3.org/2000/svg">
  <defs>
    <clipPath id="win"><rect width="720" height="420" rx="12"/></clipPath>
  </defs>

  <rect x="2" y="4" width="720" height="420" rx="12" fill="#1a1a18" opacity="0.08"/>
  <rect x="1" y="2" width="720" height="420" rx="12" fill="#1a1a18" opacity="0.04"/>

  <g clip-path="url(#win)">
    <!-- Panels -->
    <rect width="232" height="420" fill="#141413"/>
    <rect x="232" y="38" width="488" height="382" fill="#f5f2ed"/>

    <!-- Chrome -->
    <rect width="720" height="38" fill="#1e1e1c"/>
    <circle cx="20" cy="19" r="5.5" fill="#ff5f57"/>
    <circle cx="37" cy="19" r="5.5" fill="#febc2e"/>
    <circle cx="54" cy="19" r="5.5" fill="#28c840"/>
    <text x="360" y="23" text-anchor="middle" font-size="11" fill="#6b6a63"
          font-family="'SF Mono','Fira Code',Consolas,monospace">html-generator · open-make-html</text>

    <!-- Panel divider -->
    <line x1="232" y1="38" x2="232" y2="420" stroke="#2a2a28" stroke-width="1"/>

    <!-- ══ LEFT: Command Panel ══ -->

    <!-- Skill label -->
    <rect x="18" y="56" width="118" height="20" rx="10" fill="#d95f2b" opacity="0.12"/>
    <text x="77" y="70" text-anchor="middle" font-size="9.5" fill="#d95f2b" font-weight="600"
          font-family="-apple-system,BlinkMacSystemFont,'Segoe UI',sans-serif">● html-generator</text>

    <!-- Heading -->
    <text x="18" y="96" font-size="15" font-weight="700" fill="#ffffff"
          font-family="-apple-system,BlinkMacSystemFont,'Segoe UI',sans-serif">Generate any</text>
    <text x="18" y="114" font-size="15" font-weight="700" fill="#d95f2b"
          font-family="-apple-system,BlinkMacSystemFont,'Segoe UI',sans-serif">HTML file</text>
    <text x="18" y="130" font-size="15" font-weight="700" fill="#ffffff"
          font-family="-apple-system,BlinkMacSystemFont,'Segoe UI',sans-serif">with one line</text>

    <!-- Divider -->
    <line x1="18" y1="146" x2="214" y2="146" stroke="#2a2a28" stroke-width="1"/>

    <!-- Commands label -->
    <text x="18" y="163" font-size="8.5" letter-spacing="1.5" fill="#4a4a45"
          font-family="'SF Mono',Consolas,monospace">COMMANDS</text>

    <!-- Command 1 -->
    <rect x="18" y="170" width="196" height="26" rx="5" fill="#1e1e1c"/>
    <text x="28" y="187" font-size="10" fill="#6b6a63" font-family="'SF Mono',Consolas,monospace">/html </text>
    <text x="60" y="187" font-size="10" fill="#d95f2b" font-family="'SF Mono',Consolas,monospace">article</text>
    <text x="108" y="187" font-size="10" fill="#3a3a37" font-family="'SF Mono',Consolas,monospace">온톨로지란</text>

    <!-- Command 2 -->
    <rect x="18" y="202" width="196" height="26" rx="5" fill="#1e1e1c"/>
    <text x="28" y="219" font-size="10" fill="#6b6a63" font-family="'SF Mono',Consolas,monospace">/html </text>
    <text x="60" y="219" font-size="10" fill="#2d5a8e" font-family="'SF Mono',Consolas,monospace">slide</text>
    <text x="98" y="219" font-size="10" fill="#3a3a37" font-family="'SF Mono',Consolas,monospace">분산 시스템 입문</text>

    <!-- Command 3 (active/highlighted) -->
    <rect x="18" y="234" width="196" height="26" rx="5" fill="#1e1e1c" stroke="#3a6b4a" stroke-width="1"/>
    <text x="28" y="251" font-size="10" fill="#6b6a63" font-family="'SF Mono',Consolas,monospace">/html </text>
    <text x="60" y="251" font-size="10" fill="#3a6b4a" font-family="'SF Mono',Consolas,monospace">diagram</text>
    <text x="112" y="251" font-size="10" fill="#3a3a37" font-family="'SF Mono',Consolas,monospace">시스템 구성도</text>
    <!-- Cursor blink indicator -->
    <rect x="196" y="241" width="6" height="12" rx="1" fill="#3a6b4a" opacity="0.7"/>

    <!-- Divider -->
    <line x1="18" y1="276" x2="214" y2="276" stroke="#2a2a28" stroke-width="1"/>

    <!-- Types label -->
    <text x="18" y="292" font-size="8.5" letter-spacing="1.5" fill="#4a4a45"
          font-family="'SF Mono',Consolas,monospace">12 TYPES</text>

    <!-- Type pills row 1 -->
    <rect x="18"  y="300" width="50" height="17" rx="8.5" fill="#2a1a14"/>
    <text x="43"  y="312" text-anchor="middle" font-size="8.5" fill="#d95f2b" font-weight="600"
          font-family="-apple-system,sans-serif">article</text>

    <rect x="74"  y="300" width="44" height="17" rx="8.5" fill="#141e2a"/>
    <text x="96"  y="312" text-anchor="middle" font-size="8.5" fill="#2d5a8e" font-weight="600"
          font-family="-apple-system,sans-serif">report</text>

    <rect x="124" y="300" width="36" height="17" rx="8.5" fill="#162014"/>
    <text x="142" y="312" text-anchor="middle" font-size="8.5" fill="#3a6b4a" font-weight="600"
          font-family="-apple-system,sans-serif">slide</text>

    <!-- Type pills row 2 -->
    <rect x="18"  y="323" width="52" height="17" rx="8.5" fill="#201c00"/>
    <text x="44"  y="335" text-anchor="middle" font-size="8.5" fill="#8a6a00" font-weight="600"
          font-family="-apple-system,sans-serif">diagram</text>

    <rect x="76"  y="323" width="34" height="17" rx="8.5" fill="#21100f"/>
    <text x="93"  y="335" text-anchor="middle" font-size="8.5" fill="#b03a2e" font-weight="600"
          font-family="-apple-system,sans-serif">spec</text>

    <rect x="116" y="323" width="44" height="17" rx="8.5" fill="#1c1c1a"/>
    <text x="138" y="335" text-anchor="middle" font-size="8.5" fill="#6b6a63" font-weight="600"
          font-family="-apple-system,sans-serif">review</text>

    <!-- Type pills row 3 -->
    <rect x="18"  y="346" width="38" height="17" rx="8.5" fill="#141e2a"/>
    <text x="37"  y="358" text-anchor="middle" font-size="8.5" fill="#2d5a8e" font-weight="600"
          font-family="-apple-system,sans-serif">plan</text>

    <rect x="62"  y="346" width="40" height="17" rx="8.5" fill="#2a1a14"/>
    <text x="82"  y="358" text-anchor="middle" font-size="8.5" fill="#d95f2b" font-weight="600"
          font-family="-apple-system,sans-serif">editor</text>

    <rect x="108" y="346" width="56" height="17" rx="8.5" fill="#162014"/>
    <text x="136" y="358" text-anchor="middle" font-size="8.5" fill="#3a6b4a" font-weight="600"
          font-family="-apple-system,sans-serif">prototype</text>

    <!-- Type pills row 4 -->
    <rect x="18"  y="369" width="44" height="17" rx="8.5" fill="#201c00"/>
    <text x="40"  y="381" text-anchor="middle" font-size="8.5" fill="#8a6a00" font-weight="600"
          font-family="-apple-system,sans-serif">explain</text>

    <rect x="68"  y="369" width="24" height="17" rx="8.5" fill="#21100f"/>
    <text x="80"  y="381" text-anchor="middle" font-size="8.5" fill="#b03a2e" font-weight="600"
          font-family="-apple-system,sans-serif">pr</text>

    <rect x="98"  y="369" width="50" height="17" rx="8.5" fill="#1c1c1a"/>
    <text x="123" y="381" text-anchor="middle" font-size="8.5" fill="#6b6a63" font-weight="600"
          font-family="-apple-system,sans-serif">explore</text>

    <!-- ══ RIGHT: HTML Preview Panel ══ -->

    <!-- Inner browser chrome -->
    <rect x="252" y="54" width="450" height="354" rx="8" fill="#ffffff" stroke="#dedad2" stroke-width="1"/>

    <!-- Preview nav bar -->
    <rect x="252" y="54" width="450" height="34" rx="8" fill="#1a1a18"/>
    <rect x="252" y="76" width="450" height="12" fill="#1a1a18"/>
    <!-- Nav dots -->
    <circle cx="268" cy="71" r="3.5" fill="#ff5f57" opacity="0.7"/>
    <circle cx="280" cy="71" r="3.5" fill="#febc2e" opacity="0.7"/>
    <circle cx="292" cy="71" r="3.5" fill="#28c840" opacity="0.7"/>
    <!-- Nav items -->
    <text x="316" y="75" font-size="10" font-weight="600" fill="#ffffff"
          font-family="-apple-system,sans-serif">Overview</text>
    <text x="376" y="75" font-size="10" fill="#4a4a45"
          font-family="-apple-system,sans-serif">Architecture</text>
    <text x="454" y="75" font-size="10" fill="#4a4a45"
          font-family="-apple-system,sans-serif">Components</text>
    <text x="536" y="75" font-size="10" fill="#4a4a45"
          font-family="-apple-system,sans-serif">References</text>
    <!-- Nav accent underline -->
    <rect x="316" y="86" width="48" height="2" rx="1" fill="#d95f2b"/>

    <!-- Article tag + meta -->
    <rect x="272" y="100" width="44" height="16" rx="8" fill="#faeee7"/>
    <text x="294" y="111" text-anchor="middle" font-size="8.5" fill="#d95f2b" font-weight="600"
          font-family="-apple-system,sans-serif">Article</text>
    <text x="324" y="111" font-size="8.5" fill="#a09f97"
          font-family="-apple-system,sans-serif">2026-05-19 · 8 min read</text>

    <!-- Article title -->
    <text x="272" y="135" font-size="19" font-weight="700" fill="#1a1a18"
          font-family="-apple-system,BlinkMacSystemFont,'Segoe UI',sans-serif">온톨로지란 무엇인가</text>

    <!-- Intro text lines -->
    <rect x="272" y="147" width="406" height="6" rx="3" fill="#eceae4"/>
    <rect x="272" y="158" width="370" height="6" rx="3" fill="#eceae4"/>
    <rect x="272" y="169" width="390" height="6" rx="3" fill="#eceae4"/>
    <rect x="272" y="180" width="200" height="6" rx="3" fill="#eceae4"/>

    <!-- Section divider -->
    <line x1="272" y1="200" x2="688" y2="200" stroke="#eceae4" stroke-width="1"/>

    <!-- Two columns: main content + sidebar -->

    <!-- Main content (left) -->
    <!-- H2 -->
    <rect x="272" y="214" width="130" height="8" rx="4" fill="#1a1a18" opacity="0.65"/>
    <!-- Body lines -->
    <rect x="272" y="228" width="270" height="5" rx="2.5" fill="#eceae4"/>
    <rect x="272" y="237" width="255" height="5" rx="2.5" fill="#eceae4"/>
    <rect x="272" y="246" width="265" height="5" rx="2.5" fill="#eceae4"/>
    <rect x="272" y="255" width="240" height="5" rx="2.5" fill="#eceae4"/>

    <!-- Callout / highlight box -->
    <rect x="272" y="272" width="272" height="58" rx="6" fill="#faeee7"/>
    <rect x="272" y="272" width="3" height="58" rx="1.5" fill="#d95f2b"/>
    <rect x="284" y="282" width="110" height="6" rx="3" fill="#d95f2b" opacity="0.5"/>
    <rect x="284" y="294" width="240" height="5" rx="2.5" fill="#d95f2b" opacity="0.18"/>
    <rect x="284" y="303" width="220" height="5" rx="2.5" fill="#d95f2b" opacity="0.18"/>
    <rect x="284" y="312" width="200" height="5" rx="2.5" fill="#d95f2b" opacity="0.18"/>

    <!-- H2 second section -->
    <rect x="272" y="344" width="110" height="8" rx="4" fill="#1a1a18" opacity="0.65"/>
    <rect x="272" y="358" width="265" height="5" rx="2.5" fill="#eceae4"/>
    <rect x="272" y="367" width="250" height="5" rx="2.5" fill="#eceae4"/>
    <rect x="272" y="376" width="260" height="5" rx="2.5" fill="#eceae4"/>
    <rect x="272" y="385" width="230" height="5" rx="2.5" fill="#eceae4"/>

    <!-- Sidebar (right) -->
    <rect x="562" y="214" width="126" height="192" rx="7" fill="#f5f2ed" stroke="#dedad2" stroke-width="1"/>
    <!-- Sidebar: TOC label -->
    <text x="574" y="230" font-size="8.5" fill="#a09f97" letter-spacing="1" font-weight="600"
          font-family="-apple-system,sans-serif">ON THIS PAGE</text>
    <!-- TOC items -->
    <rect x="574" y="238" width="3" height="14" rx="1.5" fill="#d95f2b"/>
    <rect x="582" y="240" width="80" height="5" rx="2.5" fill="#1a1a18" opacity="0.5"/>
    <rect x="582" y="249" width="70" height="5" rx="2.5" fill="#1a1a18" opacity="0.3"/>
    <rect x="574" y="260" width="90" height="5" rx="2.5" fill="#dedad2"/>
    <rect x="574" y="270" width="80" height="5" rx="2.5" fill="#dedad2"/>
    <rect x="574" y="280" width="85" height="5" rx="2.5" fill="#dedad2"/>
    <rect x="574" y="290" width="75" height="5" rx="2.5" fill="#dedad2"/>

    <line x1="574" y1="306" x2="678" y2="306" stroke="#dedad2" stroke-width="1"/>

    <!-- Sidebar: Tags label -->
    <text x="574" y="322" font-size="8.5" fill="#a09f97" letter-spacing="1" font-weight="600"
          font-family="-apple-system,sans-serif">TAGS</text>
    <!-- Tag chips -->
    <rect x="574" y="330" width="28" height="15" rx="7.5" fill="#faeee7"/>
    <text x="588" y="341" text-anchor="middle" font-size="8" fill="#d95f2b" font-weight="600"
          font-family="-apple-system,sans-serif">AI</text>
    <rect x="608" y="330" width="50" height="15" rx="7.5" fill="#e5eef7"/>
    <text x="633" y="341" text-anchor="middle" font-size="8" fill="#2d5a8e" font-weight="600"
          font-family="-apple-system,sans-serif">Ontology</text>
    <rect x="574" y="351" width="52" height="15" rx="7.5" fill="#e6f0e9"/>
    <text x="600" y="362" text-anchor="middle" font-size="8" fill="#3a6b4a" font-weight="600"
          font-family="-apple-system,sans-serif">Concept</text>
    <rect x="632" y="351" width="36" height="15" rx="7.5" fill="#fdf5d9"/>
    <text x="650" y="362" text-anchor="middle" font-size="8" fill="#8a6a00" font-weight="600"
          font-family="-apple-system,sans-serif">Intro</text>

    <!-- Outer frame border -->
    <rect width="720" height="420" rx="12" fill="none" stroke="#dedad2" stroke-width="1"/>
  </g>
</svg>
